<svg xmlns="http://www.w3.org/2000/svg" xmlns:xlink="http://www.w3.org/1999/xlink" version="1.1" xml:space="preserve" viewBox="0 0 970 940">
<rect x="0" y="0" width="100%" height="100%" fill="transparent"/>
<g transform="matrix(1 0 0 1 540 540)" id="4d3f6d37-5658-4daa-b618-4f7a731625d0">
</g>
<g transform="matrix(1 0 0 1 540 540)" id="49248886-88c0-46db-ba33-18ac1150f186">
<rect style="stroke: none; stroke-width: 1; stroke-dasharray: none; stroke-linecap: butt; stroke-dashoffset: 0; stroke-linejoin: miter; stroke-miterlimit: 4; fill: rgb(255,255,255); fill-rule: nonzero; opacity: 1; visibility: hidden;" vector-effect="non-scaling-stroke" x="-540" y="-540" rx="0" ry="0" width="1080" height="1080"/>
</g>
<g transform="matrix(2.96 0 0 2.96 255.86 255.2)" id="cdcb0244-83b1-4bb7-876f-4a9df6e76238">
<circle style="stroke: rgb(0,0,0); stroke-width: 0; stroke-dasharray: none; stroke-linecap: butt; stroke-dashoffset: 0; stroke-linejoin: miter; stroke-miterlimit: 4; fill: rgb(0,0,0); fill-rule: nonzero; opacity: 1;" vector-effect="non-scaling-stroke" cx="0" cy="0" r="35"/>
</g>
<g transform="matrix(2.91 0 0 2.91 540 255.55)" id="cdcb0244-83b1-4bb7-876f-4a9df6e76238">
<circle style="stroke: rgb(0,0,0); stroke-width: 0; stroke-dasharray: none; stroke-linecap: butt; stroke-dashoffset: 0; stroke-linejoin: miter; stroke-miterlimit: 4; fill: rgb(0,0,0); fill-rule: nonzero; opacity: 1;" vector-effect="non-scaling-stroke" cx="0" cy="0" r="35"/>
</g>
<g transform="matrix(2.96 0 0 2.96 824.58 260.85)" id="cdcb0244-83b1-4bb7-876f-4a9df6e76238">
<circle style="stroke: rgb(0,0,0); stroke-width: 0; stroke-dasharray: none; stroke-linecap: butt; stroke-dashoffset: 0; stroke-linejoin: miter; stroke-miterlimit: 4; fill: rgb(0,0,0); fill-rule: nonzero; opacity: 1;" vector-effect="non-scaling-stroke" cx="0" cy="0" r="35"/>
</g>
<g transform="matrix(2.96 0 0 2.96 255.63 540)" id="cdcb0244-83b1-4bb7-876f-4a9df6e76238">
<circle style="stroke: rgb(0,0,0); stroke-width: 0; stroke-dasharray: none; stroke-linecap: butt; stroke-dashoffset: 0; stroke-linejoin: miter; stroke-miterlimit: 4; fill: rgb(0,0,0); fill-rule: nonzero; opacity: 1;" vector-effect="non-scaling-stroke" cx="0" cy="0" r="35"/>
</g>
<g transform="matrix(2.91 0 0 2.91 540 540)" id="cdcb0244-83b1-4bb7-876f-4a9df6e76238">
<circle style="stroke: rgb(0,0,0); stroke-width: 0; stroke-dasharray: none; stroke-linecap: butt; stroke-dashoffset: 0; stroke-linejoin: miter; stroke-miterlimit: 4; fill: rgb(0,0,0); fill-rule: nonzero; opacity: 1;" vector-effect="non-scaling-stroke" cx="0" cy="0" r="35"/>
</g>
<g transform="matrix(2.96 0 0 2.96 822.81 540)" id="cdcb0244-83b1-4bb7-876f-4a9df6e76238">
<circle style="stroke: rgb(0,0,0); stroke-width: 0; stroke-dasharray: none; stroke-linecap: butt; stroke-dashoffset: 0; stroke-linejoin: miter; stroke-miterlimit: 4; fill: rgb(0,0,0); fill-rule: nonzero; opacity: 1;" vector-effect="non-scaling-stroke" cx="0" cy="0" r="35"/>
</g>
<g transform="matrix(2.96 0 0 2.96 255.63 822.6)" id="cdcb0244-83b1-4bb7-876f-4a9df6e76238">
<circle style="stroke: rgb(0,0,0); stroke-width: 0; stroke-dasharray: none; stroke-linecap: butt; stroke-dashoffset: 0; stroke-linejoin: miter; stroke-miterlimit: 4; fill: rgb(0,0,0); fill-rule: nonzero; opacity: 1;" vector-effect="non-scaling-stroke" cx="0" cy="0" r="35"/>
</g>
<g transform="matrix(2.91 0 0 2.91 540 825.81)" id="cdcb0244-83b1-4bb7-876f-4a9df6e76238">
<circle style="stroke: rgb(0,0,0); stroke-width: 0; stroke-dasharray: none; stroke-linecap: butt; stroke-dashoffset: 0; stroke-linejoin: miter; stroke-miterlimit: 4; fill: rgb(0,0,0); fill-rule: nonzero; opacity: 1;" vector-effect="non-scaling-stroke" cx="0" cy="0" r="35"/>
</g>
<g transform="matrix(2.96 0 0 2.96 822.81 824.98)" id="cdcb0244-83b1-4bb7-876f-4a9df6e76238">
<circle style="stroke: rgb(0,0,0); stroke-width: 0; stroke-dasharray: none; stroke-linecap: butt; stroke-dashoffset: 0; stroke-linejoin: miter; stroke-miterlimit: 4; fill: rgb(0,0,0); fill-rule: nonzero; opacity: 1;" vector-effect="non-scaling-stroke" cx="0" cy="0" r="35"/>
</g>
</svg>